<svg xmlns="http://www.w3.org/2000/svg" viewBox="0 0 474.26 138.31"><defs><style>.cls-1{fill:none;}.cls-2{fill:#eeaa20;}</style></defs><g id="Layer_2" data-name="Layer 2"><g id="Layer_1-2" data-name="Layer 1"><rect class="cls-1" width="474.26" height="138.31"/><path class="cls-2" d="M121.75,106.29a18.39,18.39,0,0,0,9.24,2.79c5.1,0,7.48-2.55,7.48-5.73,0-3.34-2-5.18-7.17-7.09-6.93-2.47-10.19-6.29-10.19-10.91,0-6.21,5-11.31,13.3-11.31a19.12,19.12,0,0,1,9.47,2.39l-1.75,5.1a15,15,0,0,0-7.88-2.23c-4.14,0-6.45,2.39-6.45,5.25,0,3.18,2.31,4.62,7.32,6.53,6.69,2.55,10.11,5.89,10.11,11.62,0,6.77-5.25,11.54-14.41,11.54A22,22,0,0,1,120,111.61Z"/><path class="cls-2" d="M156.14,95.46c.16,9.47,6.21,13.38,13.22,13.38a25.41,25.41,0,0,0,10.67-2l1.19,5a31.13,31.13,0,0,1-12.82,2.39c-11.86,0-19-7.8-19-19.43s6.85-20.78,18.07-20.78c12.58,0,15.92,11.07,15.92,18.15a26.16,26.16,0,0,1-.24,3.26Zm20.54-5c.08-4.46-1.83-11.39-9.71-11.39-7.09,0-10.19,6.53-10.75,11.39Z"/><path class="cls-2" d="M190.13,56.93h7v56.53h-7Z"/><path class="cls-2" d="M210.83,95.46c.16,9.47,6.21,13.38,13.22,13.38a25.41,25.41,0,0,0,10.67-2l1.19,5a31.13,31.13,0,0,1-12.82,2.39c-11.86,0-19-7.8-19-19.43S211,74.05,222.21,74.05c12.58,0,15.92,11.07,15.92,18.15a26.16,26.16,0,0,1-.24,3.26Zm20.54-5c.08-4.46-1.83-11.39-9.71-11.39-7.09,0-10.19,6.53-10.75,11.39Z"/><path class="cls-2" d="M272.3,112a25.73,25.73,0,0,1-11.07,2.23c-11.62,0-19.19-7.88-19.19-19.67s8.12-20.46,20.7-20.46a23.33,23.33,0,0,1,9.71,2l-1.59,5.41a16.19,16.19,0,0,0-8.12-1.83c-8.84,0-13.62,6.53-13.62,14.57,0,8.92,5.73,14.41,13.38,14.41a20,20,0,0,0,8.6-1.91Z"/><path class="cls-2" d="M288,63.85V74.92h10v5.33H288V101c0,4.78,1.35,7.48,5.25,7.48a15.48,15.48,0,0,0,4.06-.48l.32,5.25a17.05,17.05,0,0,1-6.21,1c-3.26,0-5.89-1-7.56-2.95-2-2.07-2.71-5.49-2.71-10v-21h-6V74.91h6V65.67Z"/><path class="cls-2" d="M469.19,52.64c-7,28.39-34.67,58.38-69.51,60.91-17.37,1.26-49.63-11.1-60.52-41.53,5.46,3.42,8.92,5.34,12.11,7.63,33.69,24.23,63.16,22,94.86-5.49C454.44,67,459.5,60.83,469.19,52.64Z"/><circle class="cls-2" cx="406.96" cy="72.18" r="19.54"/><circle class="cls-2" cx="418.97" cy="16.74" r="10.98"/><circle class="cls-2" cx="451.14" cy="33.62" r="10.98"/><circle class="cls-2" cx="355.96" cy="52.64" r="10.98"/><circle class="cls-2" cx="378.37" cy="22.64" r="10.98"/></g></g></svg>