<svg xmlns="http://www.w3.org/2000/svg" viewBox="0 0 474.26 138.31"><defs><style>.cls-1{fill:none;}.cls-2{fill:#617a86;}</style></defs><g id="Layer_2" data-name="Layer 2"><g id="Layer_1-2" data-name="Layer 1"><rect class="cls-1" width="474.26" height="138.31"/><path class="cls-2" d="M56.37,86.49c0-4.94-.16-8.92-.32-12.58h6.29l.32,6.61h.16c2.87-4.7,7.4-7.48,13.69-7.48,9.32,0,16.32,7.88,16.32,19.59,0,13.85-8.44,20.7-17.52,20.7-5.1,0-9.55-2.23-11.86-6H63.3v20.94H56.37ZM63.3,96.76a15.74,15.74,0,0,0,.32,2.87,10.8,10.8,0,0,0,10.51,8.2c7.4,0,11.7-6,11.7-14.89,0-7.72-4.06-14.33-11.47-14.33a11.17,11.17,0,0,0-10.59,8.68,11.34,11.34,0,0,0-.48,2.87v6.6Z"/><path class="cls-2" d="M99.68,85.93c0-4.54-.08-8.44-.32-12h6.13l.24,7.56h.32C107.8,76.3,112,73,116.72,73a7.54,7.54,0,0,1,2,.24v6.61a10.48,10.48,0,0,0-2.39-.24c-4.94,0-8.44,3.74-9.4,9a19.67,19.67,0,0,0-.32,3.26v20.54H99.67V85.93Z"/><path class="cls-2" d="M131.84,63.08a4.34,4.34,0,0,1-8.68,0,4.27,4.27,0,0,1,4.38-4.38A4.16,4.16,0,0,1,131.84,63.08ZM124,112.45V73.91h7v38.54Z"/><path class="cls-2" d="M140.68,84.34c0-4-.08-7.25-.32-10.43h6.13l.32,6.21h.24A13.29,13.29,0,0,1,159.15,73a11.39,11.39,0,0,1,10.91,7.72h.16a15.93,15.93,0,0,1,4.3-5A13.17,13.17,0,0,1,183,73c5.1,0,12.66,3.34,12.66,16.72v22.69h-6.85V90.61c0-7.4-2.71-11.86-8.36-11.86-4,0-7.09,3-8.28,6.37a11.51,11.51,0,0,0-.56,3.5v23.81H164.8V89.34c0-6.13-2.71-10.59-8-10.59-4.38,0-7.56,3.5-8.68,7a9.63,9.63,0,0,0-.56,3.42v23.25h-6.85V84.34Z"/><path class="cls-2" d="M226.42,112.45l-.56-4.86h-.24a14.34,14.34,0,0,1-11.78,5.73c-7.8,0-11.78-5.49-11.78-11.07,0-9.32,8.28-14.41,23.17-14.33v-.8c0-3.18-.88-8.92-8.76-8.92a19.11,19.11,0,0,0-10,2.87l-1.59-4.62A23.92,23.92,0,0,1,217.51,73c11.78,0,14.65,8,14.65,15.76V103.2a54.11,54.11,0,0,0,.64,9.24h-6.38Zm-1-19.67c-7.64-.16-16.32,1.19-16.32,8.68,0,4.54,3,6.69,6.61,6.69A9.59,9.59,0,0,0,225,101.7a7.29,7.29,0,0,0,.4-2.23V92.78Z"/><path class="cls-2" d="M241.47,85.93c0-4.54-.08-8.44-.32-12h6.13l.24,7.56h.32c1.75-5.17,6-8.44,10.67-8.44a7.54,7.54,0,0,1,2,.24v6.61a10.48,10.48,0,0,0-2.39-.24c-4.94,0-8.44,3.74-9.4,9a19.67,19.67,0,0,0-.32,3.26v20.54h-6.93V85.93Z"/><path class="cls-2" d="M270.05,73.91l8.44,22.77c.88,2.55,1.83,5.57,2.47,7.88h.16c.72-2.31,1.51-5.25,2.47-8l7.64-22.61h7.4l-10.51,27.47c-5,13.22-8.44,20-13.22,24.13a19,19,0,0,1-8.6,4.54l-1.75-5.89a18.61,18.61,0,0,0,6.13-3.42,21.21,21.21,0,0,0,5.89-7.8,5,5,0,0,0,.56-1.67,6,6,0,0,0-.48-1.83L262.4,73.93h7.65Z"/><path class="cls-2" d="M469.19,51.63c-7,28.39-34.67,58.38-69.51,60.91-17.37,1.26-49.63-11.1-60.52-41.53,5.46,3.42,8.92,5.34,12.11,7.63,33.69,24.23,63.16,22,94.86-5.49C454.43,65.93,459.5,59.82,469.19,51.63Z"/><circle class="cls-2" cx="406.96" cy="71.17" r="19.54"/><circle class="cls-2" cx="418.96" cy="15.73" r="10.98"/><circle class="cls-2" cx="451.13" cy="32.61" r="10.98"/></g></g></svg>