<svg xmlns="http://www.w3.org/2000/svg" viewBox="0 0 465.65 134.08"><defs><style>.cls-1{fill:#1b9fda;}.cls-2{fill:none;}</style></defs><g id="Layer_2" data-name="Layer 2"><g id="Layer_1-2" data-name="Layer 1"><path class="cls-1" d="M2.7,88.46c0-4.94-.16-8.92-.32-12.58H8.67L9,82.49h.16C12,77.79,16.55,75,22.84,75c9.32,0,16.32,7.88,16.32,19.59,0,13.85-8.44,20.7-17.52,20.7-5.1,0-9.55-2.23-11.86-6H9.63v20.94H2.7ZM9.63,98.73A15.74,15.74,0,0,0,10,101.6a10.8,10.8,0,0,0,10.51,8.2c7.4,0,11.7-6,11.7-14.89,0-7.72-4.06-14.33-11.47-14.33A11.17,11.17,0,0,0,10.1,89.26a11.34,11.34,0,0,0-.48,2.87v6.6Z"/><path class="cls-1" d="M46,87.91c0-4.54-.08-8.44-.32-12h6.13l.24,7.56h.32c1.75-5.17,6-8.44,10.67-8.44a7.54,7.54,0,0,1,2,.24v6.61a10.48,10.48,0,0,0-2.39-.24c-4.94,0-8.44,3.74-9.4,9a19.67,19.67,0,0,0-.32,3.26v20.54H46V87.91Z"/><path class="cls-1" d="M78.17,65.06a4.34,4.34,0,0,1-8.68,0,4.27,4.27,0,0,1,4.38-4.38A4.16,4.16,0,0,1,78.17,65.06Zm-7.8,49.36V75.88h7v38.54Z"/><path class="cls-1" d="M87,86.31c0-4-.08-7.25-.32-10.43h6.13l.32,6.21h.24A13.29,13.29,0,0,1,105.48,75a11.39,11.39,0,0,1,10.91,7.72h.16a15.93,15.93,0,0,1,4.3-5A13.17,13.17,0,0,1,129.37,75c5.1,0,12.66,3.34,12.66,16.72V114.4h-6.85V92.58c0-7.4-2.71-11.86-8.36-11.86-4,0-7.09,3-8.28,6.37a11.51,11.51,0,0,0-.56,3.5V114.4h-6.85V91.31c0-6.13-2.71-10.59-8-10.59-4.38,0-7.56,3.5-8.68,7a9.63,9.63,0,0,0-.56,3.42V114.4H87V86.31Z"/><path class="cls-1" d="M172.75,114.42l-.56-4.86H172a14.34,14.34,0,0,1-11.78,5.73c-7.8,0-11.78-5.49-11.78-11.07,0-9.32,8.28-14.41,23.17-14.33v-.8c0-3.18-.88-8.92-8.76-8.92a19.11,19.11,0,0,0-10,2.87l-1.59-4.62A23.92,23.92,0,0,1,163.84,75c11.78,0,14.65,8,14.65,15.76v14.41a54.11,54.11,0,0,0,.64,9.24h-6.38Zm-1-19.67c-7.64-.16-16.32,1.19-16.32,8.68,0,4.54,3,6.69,6.61,6.69a9.59,9.59,0,0,0,9.32-6.45,7.29,7.29,0,0,0,.4-2.23V94.75Z"/><path class="cls-1" d="M187.8,87.91c0-4.54-.08-8.44-.32-12h6.13l.24,7.56h.32c1.75-5.17,6-8.44,10.67-8.44a7.54,7.54,0,0,1,2,.24v6.61a10.48,10.48,0,0,0-2.39-.24c-4.94,0-8.44,3.74-9.4,9a19.67,19.67,0,0,0-.32,3.26v20.54h-6.93V87.91Z"/><path class="cls-1" d="M216.38,75.88l8.44,22.77c.88,2.55,1.83,5.57,2.47,7.88h.16c.72-2.31,1.51-5.25,2.47-8l7.64-22.61H245l-10.51,27.47c-5,13.22-8.44,20-13.22,24.12a19,19,0,0,1-8.6,4.54l-1.75-5.89A18.61,18.61,0,0,0,217,122.7a21.21,21.21,0,0,0,5.89-7.8,5,5,0,0,0,.56-1.67,6,6,0,0,0-.48-1.83L208.73,75.89h7.65Z"/><path class="cls-1" d="M269.8,72.06V90.77h18v4.78h-18v18.87h-5.1V95.55h-18V90.77h18V72.06Z"/><path class="cls-1" d="M462,53.6c-7,28.39-34.67,58.38-69.51,60.91C375.15,115.77,342.89,103.41,332,73c5.46,3.42,8.92,5.34,12.11,7.63,33.69,24.23,63.16,22,94.86-5.49C447.28,67.91,452.35,61.79,462,53.6Z"/><circle class="cls-1" cx="399.8" cy="73.14" r="19.54"/><circle class="cls-1" cx="371.21" cy="23.6" r="10.98"/><circle class="cls-1" cx="411.81" cy="17.71" r="10.98"/><circle class="cls-1" cx="443.98" cy="34.59" r="10.98"/><rect class="cls-2" width="465.65" height="134.08"/></g></g></svg>