<svg xmlns="http://www.w3.org/2000/svg" width="28.667" height="28.667" viewBox="0 0 28.667 28.667"><g transform="translate(-1.666 -1.667)"><path d="M16,30.333A14.333,14.333,0,1,1,30.333,16,14.345,14.345,0,0,1,16,30.333ZM16,3.667A12.333,12.333,0,1,0,28.333,16,12.348,12.348,0,0,0,16,3.667Z" fill="rgba(2,9,26,0.4)"/><path d="M21.333,17H10.666a1,1,0,0,1,0-2H21.333a1,1,0,0,1,0,2Z" fill="#2CA1D8"/><path d="M16,22.333a1.007,1.007,0,0,1-1-1V10.667a1,1,0,0,1,2,0V21.333A1.007,1.007,0,0,1,16,22.333Z" fill="#2CA1D8"/></g></svg>